<svg xmlns="http://www.w3.org/2000/svg" viewBox="0 0 32 32" width="32" height="32">
  <defs>
    <clipPath id="r"><rect width="32" height="32" rx="6" /></clipPath>
  </defs>
  <g clip-path="url(#r)">
    <rect width="32" height="16" fill="#0038a8" />
    <rect y="16" width="32" height="16" fill="#ce1126" />
    <polygon points="0,0 0,32 21,16" fill="#ffffff" />
    <!-- araw (sun) with 8 rays -->
    <g fill="#fcd116">
      <circle cx="7.6" cy="16" r="3.1" />
      <g stroke="#fcd116" stroke-width="1.1" stroke-linecap="round">
        <line x1="7.6" y1="9.8" x2="7.6" y2="12" />
        <line x1="7.6" y1="20" x2="7.6" y2="22.2" />
        <line x1="1.4" y1="16" x2="3.6" y2="16" />
        <line x1="11.6" y1="16" x2="13.8" y2="16" />
        <line x1="3.2" y1="11.6" x2="4.8" y2="13.2" />
        <line x1="10.4" y1="18.8" x2="12" y2="20.4" />
        <line x1="3.2" y1="20.4" x2="4.8" y2="18.8" />
        <line x1="10.4" y1="13.2" x2="12" y2="11.6" />
      </g>
      <circle cx="3.4" cy="4.2" r="1.3" />
      <circle cx="3.4" cy="27.8" r="1.3" />
      <circle cx="17.2" cy="16" r="1.3" />
    </g>
  </g>
</svg>
